<svg width="38" height="38" viewBox="0 0 38 38" fill="none" xmlns="http://www.w3.org/2000/svg">
<circle cx="19" cy="19" r="17" fill="#0BCAD4" stroke="white" stroke-width="4"/>
<g clip-path="url(#clip0)">
<path d="M26.1429 9C25.7484 9 25.4286 9.3198 25.4286 9.7143V12.3236C21.7512 8.76328 15.8839 8.85829 12.3236 12.5357C10.6458 14.2687 9.70973 16.5878 9.71437 19C9.71437 19.3945 10.0342 19.7143 10.4287 19.7143C10.8232 19.7143 11.1429 19.3945 11.1429 19C11.1438 14.6606 14.6622 11.1435 19.0016 11.1444C21.2055 11.1448 23.3078 12.0708 24.7958 13.6964L21.6315 14.7514C21.2568 14.8761 21.054 15.2809 21.1787 15.6557C21.3034 16.0304 21.7082 16.2332 22.083 16.1085L26.3687 14.6799C26.6612 14.5825 26.8582 14.3083 26.8573 14V9.71426C26.8572 9.3198 26.5374 9 26.1429 9Z" fill="white"/>
<path d="M27.5715 18.2859C27.177 18.2859 26.8572 18.6057 26.8572 19.0002C26.8563 23.3395 23.3378 26.8566 18.9984 26.8557C16.7946 26.8553 14.6923 25.9293 13.2043 24.3037L16.3685 23.2488C16.7433 23.1241 16.9461 22.7192 16.8214 22.3445C16.6967 21.9697 16.2919 21.767 15.9171 21.8917L11.6314 23.3202C11.3389 23.4176 11.1419 23.6919 11.1428 24.0002V28.2859C11.1428 28.6804 11.4626 29.0002 11.8571 29.0002C12.2516 29.0002 12.5714 28.6804 12.5714 28.2859V25.6766C16.2488 29.2369 22.1162 29.1419 25.6764 25.4645C27.3543 23.7314 28.2903 21.4124 28.2857 19.0002C28.2858 18.6057 27.966 18.2859 27.5715 18.2859Z" fill="white"/>
</g>
<defs>
<clipPath id="clip0">
<rect width="20" height="20" fill="white" transform="translate(9 9)"/>
</clipPath>
</defs>
</svg>
